<?xml version="1.0" encoding="UTF-8"?>
<svg width="128px" height="132px" viewBox="0 0 128 132" version="1.1" xmlns="http://www.w3.org/2000/svg" xmlns:xlink="http://www.w3.org/1999/xlink">
    <!-- Generator: Sketch 45.2 (43514) - http://www.bohemiancoding.com/sketch -->
    <title>Group 7</title>
    <desc>Created with Sketch.</desc>
    <defs></defs>
    <g id="Responsive_Tunel" stroke="none" stroke-width="1" fill="none" fill-rule="evenodd">
        <g id="FL_Profile_Desktop">
            <g id="Group-2-Copy-4">
                <g id="Group-7">
                    <rect id="Rectangle-2-Copy" fill="#FFFFFF" x="0" y="0" width="128" height="131.627323"></rect>
                    <path d="M76,40 L78,40 L78,52 L76,52 L62,52 L62,56 L70,56 L70,60 L58,60 L58,58 L58,52 L54,52 L54,88 L50,88 L50,48 L52,48 L74,48 L74,44 L58,44 L58,40 L76,40 Z M60,64 L70,64 L70,68 L62,68 L62,88 L58,88 L58,64 L60,64 Z" id="Combined-Shape" fill="#FC4529"></path>
                </g>
            </g>
        </g>
    </g>
</svg>